<svg width="20" height="19" viewBox="0 0 20 19" fill="none" xmlns="http://www.w3.org/2000/svg">
<path opacity="0.4" d="M9.776 18.8374C7.49295 17.4273 5.37065 15.7645 3.44792 13.8796C2.09053 12.5338 1.05389 10.8905 0.417193 9.07526C-0.720439 5.53523 0.603836 1.48948 4.30114 0.288397C6.25265 -0.324469 8.37508 0.0517545 10.0071 1.29983C11.6397 0.0531503 13.7614 -0.322951 15.713 0.288397C19.4103 1.48948 20.7435 5.53523 19.6058 9.07526C18.9743 10.8888 17.9438 12.5319 16.5929 13.8796C14.6684 15.7625 12.5463 17.4251 10.2648 18.8374L10.016 19L9.776 18.8374Z" fill="#8D8D8D"/>
<path d="M10.0109 19L9.77598 18.8374C7.49013 17.4274 5.36487 15.7647 3.43902 13.8796C2.0752 12.5356 1.03238 10.8922 0.390519 9.07523C-0.738225 5.5352 0.58605 1.48945 4.28335 0.288367C6.23486 -0.324499 8.38528 0.0520129 10.0109 1.31054V19Z" fill="#8D8D8D"/>
<path d="M16.2304 6.99922C16.0296 6.98629 15.8425 6.8859 15.7131 6.72157C15.5836 6.55723 15.5232 6.3434 15.5459 6.13016C15.5677 5.4278 15.168 4.78851 14.5517 4.53977C14.1609 4.43309 13.9243 4.00987 14.022 3.59249C14.1148 3.18182 14.4993 2.92647 14.8858 3.0189C14.9346 3.027 14.9816 3.04468 15.0244 3.07105C16.2601 3.54658 17.0601 4.82641 16.9965 6.22576C16.9944 6.43785 16.9117 6.63998 16.7673 6.78581C16.6229 6.93164 16.4291 7.00866 16.2304 6.99922Z" fill="#8D8D8D"/>
</svg>
